<svg width="627.325195" height="604.000000" viewBox="0 0 627.325 604" fill="none" xmlns="http://www.w3.org/2000/svg" xmlns:xlink="http://www.w3.org/1999/xlink">
	<desc>
			Created with Pixso.
	</desc>
	<defs>
		<clipPath id="clip126_262">
			<rect id="OBJECTS" rx="0.000000" width="477.780426" height="498.036560" transform="translate(75.386192 105.463379)" fill="white" fill-opacity="0"/>
		</clipPath>
	</defs>
	<path id="Vector" d="M588.23 225.41C589.83 216.23 592.4 207.14 594.24 197.79C597.75 179.9 597.63 161.17 595.01 143.14C589.87 107.95 575.06 74.5 554.73 47.22C532.31 17.12 498.59 -7.21 462.32 1.95C424.59 11.49 392.66 40.58 355.97 53.86C293.84 76.33 230.94 35.37 168.31 36.73C114.26 37.91 57.53 57.32 21.91 105.31C7.34 124.94 -2.77 151.38 0.67 177.26C4.87 208.87 28.06 232.93 45.37 256.32C71.89 292.18 81.92 331.15 59.62 373.06C44.54 401.43 24.25 426.49 26 461.71C28.81 518.07 80.83 552.1 123.73 567.28C167.29 582.71 216.79 584.38 260.12 566.94C298.6 551.45 325.47 517.52 360.45 495.95C391.94 476.52 427.84 469.07 463.46 473.34C500.53 477.78 539.6 485.57 575.43 469.6C609.72 454.31 625.96 413.33 627.23 374.09C627.86 354.51 625.06 334.67 618.55 316.46C610.6 294.22 593 276.89 588.06 253.29C586.04 243.66 586.67 234.48 588.23 225.41Z" fill="#1B2F46" fill-opacity="1.000000" fill-rule="evenodd"/>
	<rect id="OBJECTS" rx="0.000000" width="477.780426" height="498.036560" transform="translate(75.386192 105.463379)" fill="#FFFFFF" fill-opacity="0"/>
	<g clip-path="url(#clip126_262)">
		<path id="Vector" d="M84.16 104.96L544.38 104.96C549.51 104.96 553.66 109.12 553.66 114.24L553.66 462.4C553.66 467.53 549.51 471.68 544.38 471.68L84.16 471.68C79.04 471.68 74.88 467.53 74.88 462.4L74.88 114.24C74.88 109.12 79.04 104.96 84.16 104.96Z" fill="#92A4B9" fill-opacity="1.000000" fill-rule="evenodd"/>
		<path id="Vector" d="M86.31 115.01L542.23 115.01L542.23 452.56L86.31 452.56L86.31 115.01Z" fill="#FFFFFF" fill-opacity="1.000000" fill-rule="evenodd"/>
		<g opacity="0.600000">
			<path id="Vector" d="M542.53 446.36L542.23 446.36L542.23 121.2L542.23 115.01L86.31 115.01L86.31 121.2L536.04 121.2L536.04 446.36L86.61 446.36L86.61 452.55L536.04 452.55L542.23 452.55L542.53 452.55L542.53 446.36Z" fill="#E0E0E0" fill-opacity="1.000000" fill-rule="nonzero"/>
		</g>
		<path id="Vector" d="M197.56 133.16L201.68 133.16L201.68 424.48L197.56 424.48L197.56 133.16Z" fill="#E0E0E0" fill-opacity="1.000000" fill-rule="evenodd"/>
		<path id="Vector" d="M509.34 155.03L417.9 155.03L417.9 133.16L413.42 133.16L413.42 155.03L274 155.03L274 133.16L269.51 133.16L269.51 155.03L202.04 155.03L202.04 133.16L197.56 133.16L197.56 155.03L139.61 155.03L139.61 133.16L135.49 133.16L135.49 155.03L110.13 155.03L110.13 159.16L135.49 159.16L135.49 424.49L139.61 424.49L139.61 159.16L197.56 159.16L197.56 424.49L202.04 424.49L202.04 159.16L269.51 159.16L269.51 424.49L274 424.49L274 159.16L413.42 159.16L413.42 424.49L417.9 424.49L417.9 159.16L509.34 159.16L509.34 155.03Z" fill="#C2DBF6" fill-opacity="1.000000" fill-rule="nonzero"/>
		<g opacity="0.700000">
			<path id="Vector" d="M366.5 185.3L361.3 222.8L403.15 223.31L399.62 175.4L366.5 185.3Z" fill="#CCCCCC" fill-opacity="1.000000" fill-rule="nonzero"/>
		</g>
		<path id="Vector" d="M358.74 175.4L399.6 175.4L399.6 218.77L358.74 218.77L358.74 175.4Z" fill="#DE4E96" fill-opacity="1.000000" fill-rule="evenodd"/>
		<path id="Vector" d="M370.97 172.36L388.51 172.36L388.51 178.55L370.97 178.55L370.97 172.36Z" fill="#CCCCCC" fill-opacity="1.000000" fill-rule="evenodd"/>
		<path id="Vector" d="M193.02 141.78C193.02 143.4 191.71 144.72 190.08 144.72L146.8 144.72C145.18 144.72 143.87 143.41 143.87 141.78C143.87 140.15 145.18 138.83 146.8 138.83L190.09 138.83C191.71 138.83 193.04 140.14 193.04 141.78L193.02 141.78Z" fill="#C2DBF6" fill-opacity="1.000000" fill-rule="nonzero"/>
		<path id="Vector" d="M259.83 141.78C259.83 143.4 258.52 144.72 256.89 144.72L213.6 144.72C211.98 144.72 210.67 143.41 210.67 141.78C210.67 140.15 211.98 138.83 213.6 138.83L256.89 138.83C258.51 138.83 259.83 140.14 259.83 141.78Z" fill="#C2DBF6" fill-opacity="1.000000" fill-rule="nonzero"/>
		<path id="Vector" d="M488.72 141.78C488.72 143.4 487.41 144.72 485.78 144.72L442.49 144.72C440.86 144.72 439.55 143.41 439.55 141.78C439.55 140.15 440.86 138.83 442.49 138.83L485.78 138.83C487.4 138.83 488.72 140.14 488.72 141.78Z" fill="#C2DBF6" fill-opacity="1.000000" fill-rule="nonzero"/>
		<path id="Vector" d="M491.6 392.53C491.6 394.25 490.22 395.64 488.5 395.64L444.91 395.64C443.19 395.64 441.8 394.25 441.8 392.53C441.8 390.81 443.19 389.42 444.91 389.42L488.5 389.42C490.22 389.42 491.6 390.81 491.6 392.53Z" fill="#B1C909" fill-opacity="1.000000" fill-rule="nonzero"/>
		<path id="Vector" d="M491.6 404.91C491.6 406.63 490.22 408.02 488.5 408.02L444.91 408.02C443.19 408.02 441.8 406.63 441.8 404.91C441.8 403.19 443.19 401.8 444.91 401.8L488.5 401.8C490.22 401.8 491.6 403.19 491.6 404.91Z" fill="#B1C909" fill-opacity="1.000000" fill-rule="nonzero"/>
		<path id="Vector" d="M219.33 177.69L216.02 201.53L242.74 203.11L242.74 175.95L219.33 177.69Z" fill="#CCCCCC" fill-opacity="1.000000" fill-rule="nonzero"/>
		<path id="Vector" d="M218.75 172.36L244.74 172.36L244.74 199.96L218.75 199.96L218.75 172.36Z" fill="#959CE4" fill-opacity="1.000000" fill-rule="evenodd"/>
		<g opacity="0.700000">
			<path id="Vector" d="M285.54 189.24L337.4 189.24L337.4 252.58L285.54 252.58L285.54 189.24Z" fill="#CCCCCC" fill-opacity="1.000000" fill-rule="evenodd"/>
		</g>
		<path id="Vector" d="M231.18 204.3L235.15 228.06L261.12 221.58L253 195.66L231.18 204.3Z" fill="#CCCCCC" fill-opacity="1.000000" fill-rule="nonzero"/>
		<path id="Vector" d="M229.05 199.41L253.85 191.63L262.1 217.97L237.29 225.74L229.05 199.41Z" fill="#DE4E96" fill-opacity="1.000000" fill-rule="evenodd"/>
		<g opacity="0.200000">
			<path id="Vector" d="M317.74 184.35C317.74 188.48 314.47 191.84 310.44 191.84C306.4 191.84 303.14 188.48 303.14 184.35C303.14 180.21 306.4 176.86 310.44 176.86C314.47 176.86 317.74 180.21 317.74 184.35Z" fill="#666666" fill-opacity="1.000000" fill-rule="nonzero"/>
		</g>
		<path id="Vector" d="M288.24 279.69L283.04 317.19L325.05 319.68L325.05 276.98L288.24 279.69Z" fill="#CCCCCC" fill-opacity="1.000000" fill-rule="nonzero"/>
		<g opacity="0.700000">
			<path id="Vector" d="M358.69 294.09L362.03 331.8L403.51 324.8L393.95 283.18L358.69 294.09Z" fill="#CCCCCC" fill-opacity="1.000000" fill-rule="nonzero"/>
		</g>
		<path id="Vector" d="M355.94 286.12L395.76 276.95L405.49 319.23L365.66 328.4L355.94 286.12Z" fill="#FFBB2E" fill-opacity="1.000000" fill-rule="evenodd"/>
		<path id="Vector" d="M331.56 264.47L311.46 296.55L348.77 316.04L366.25 277.08L331.56 264.47Z" fill="#CCCCCC" fill-opacity="1.000000" fill-rule="nonzero"/>
		<path id="Vector" d="M287.34 271.34L328.2 271.34L328.2 314.71L287.34 314.71L287.34 271.34Z" fill="#959CE4" fill-opacity="1.000000" fill-rule="evenodd"/>
		<path id="Vector" d="M449.92 329.59L447.6 352.5L473.16 353.08L472.23 327.14L449.92 329.59Z" fill="#CCCCCC" fill-opacity="1.000000" fill-rule="nonzero"/>
		<path id="Vector" d="M449.21 324.52L474.04 323.62L474.99 349.97L450.17 350.87L449.21 324.52Z" fill="#959CE4" fill-opacity="1.000000" fill-rule="evenodd"/>
		<g opacity="0.700000">
			<path id="Vector" d="M467.55 349.56L465.21 372.45L490.79 373.03L489.85 347.1L467.55 349.56Z" fill="#EADBEA" fill-opacity="1.000000" fill-rule="nonzero"/>
		</g>
		<path id="Vector" d="M466.82 344.46L491.65 343.56L492.61 369.91L467.78 370.81L466.82 344.46Z" fill="#45C678" fill-opacity="1.000000" fill-rule="evenodd"/>
		<g opacity="0.700000">
			<path id="Vector" d="M229.82 274.32L215.9 300.81L246.87 312.42L257.09 275.85L229.82 274.32Z" fill="#CCCCCC" fill-opacity="1.000000" fill-rule="nonzero"/>
		</g>
		<path id="Vector" d="M215.08 297.12L226.72 264.88L257.1 275.86L245.46 308.1L215.08 297.12Z" fill="#B1C909" fill-opacity="1.000000" fill-rule="evenodd"/>
		<path id="Vector" d="M234.96 270.52L236.62 265.92L249.66 270.63L248 275.23L234.96 270.52Z" fill="#666666" fill-opacity="1.000000" fill-rule="evenodd"/>
		<g opacity="0.700000">
			<path id="Vector" d="M346.66 408.33L312.44 426.65L293.4 383.51L327.97 367.61L346.66 408.33Z" fill="#CCCCCC" fill-opacity="1.000000" fill-rule="nonzero"/>
		</g>
		<path id="Vector" d="M294.57 380.54L329.14 364.65L348.76 407.39L314.19 423.28L294.57 380.54Z" fill="#B1C909" fill-opacity="1.000000" fill-rule="evenodd"/>
		<path id="Vector" d="M292.85 389.09L301 372.87L306.09 375.43L297.93 391.65L292.85 389.09Z" fill="#FFDA8E" fill-opacity="1.000000" fill-rule="evenodd"/>
		<path id="Vector" d="M338.43 411.9L345.84 397.17L350.92 399.73L343.52 414.46L338.43 411.9Z" fill="#FFDA8E" fill-opacity="1.000000" fill-rule="evenodd"/>
		<g opacity="0.700000">
			<path id="Vector" d="M361.31 265.11C361.31 269.25 358.04 272.6 354.01 272.6C349.98 272.6 346.71 269.25 346.71 265.11C346.71 260.98 349.98 257.62 354.01 257.62C358.04 257.62 361.31 260.98 361.31 265.11Z" fill="#CCCCCC" fill-opacity="1.000000" fill-rule="nonzero"/>
		</g>
		<g opacity="0.700000">
			<path id="Vector" d="M241.62 364.49L236.81 349.13L214.98 357.78L218.96 381.53L233.39 377.92L230.66 387.31L256.85 392.77L260.81 365.9L241.62 364.49Z" fill="#CCCCCC" fill-opacity="1.000000" fill-rule="nonzero"/>
		</g>
		<g opacity="0.700000">
			<path id="Vector" d="M220.37 386.24L213.62 409.35L239.82 414.83L243.77 387.95L220.37 386.24Z" fill="#CCCCCC" fill-opacity="1.000000" fill-rule="nonzero"/>
		</g>
		<path id="Vector" d="M316.6 208.13C316.07 207.7 315.29 207.77 314.85 208.3L307.78 216.93L300.8 207.76C300.39 207.21 299.61 207.11 299.07 207.52C298.52 207.93 298.42 208.71 298.83 209.26L306.17 218.9L298.49 228.26C298.05 228.79 298.13 229.57 298.66 230C298.89 230.19 299.17 230.29 299.44 230.29C299.8 230.29 300.16 230.14 300.39 229.83L307.69 220.93L314.43 229.8C314.68 230.13 315.05 230.29 315.42 230.29C315.68 230.29 315.94 230.2 316.16 230.04C316.71 229.63 316.81 228.85 316.4 228.31L309.3 218.97L316.75 209.9C317.18 209.37 317.1 208.59 316.57 208.15L316.6 208.13Z" fill="#010202" fill-opacity="1.000000" fill-rule="nonzero"/>
		<g opacity="0.700000">
			<path id="Vector" d="M166.42 301.64L155.99 323.35L180.95 333.01L189.24 307.15L166.42 301.64Z" fill="#CCCCCC" fill-opacity="1.000000" fill-rule="nonzero"/>
		</g>
		<path id="Vector" d="M159.08 322.69L167.49 296.41L192.25 304.35L183.83 330.63L159.08 322.69Z" fill="#66C2F0" fill-opacity="1.000000" fill-rule="evenodd"/>
		<g opacity="0.700000">
			<path id="Vector" d="M168.45 370.66C170.48 372.72 170.49 376 168.48 377.99C166.46 379.97 163.18 379.88 161.15 377.81C159.12 375.74 159.11 372.46 161.13 370.48C163.14 368.5 166.42 368.59 168.45 370.66Z" fill="#CCCCCC" fill-opacity="1.000000" fill-rule="nonzero"/>
		</g>
		<g opacity="0.700000">
			<path id="Vector" d="M438.53 290.25L465.63 238.19L507.73 260.14L480.63 312.2L438.53 290.25Z" fill="#CCCCCC" fill-opacity="1.000000" fill-rule="evenodd"/>
		</g>
		<g opacity="0.700000">
			<path id="Vector" d="M475.78 191L478.49 221.58L512.14 215.92L504.38 182.16L475.78 191Z" fill="#CCCCCC" fill-opacity="1.000000" fill-rule="nonzero"/>
		</g>
		<path id="Vector" d="M473.54 184.53L505.86 177.09L513.75 211.38L481.43 218.82L473.54 184.53Z" fill="#FFBB2E" fill-opacity="1.000000" fill-rule="evenodd"/>
		<g opacity="0.700000">
			<path id="Vector" d="M443.17 171.65L424.99 200.69L458.74 218.32L474.57 183.07L443.17 171.65Z" fill="#CCCCCC" fill-opacity="1.000000" fill-rule="nonzero"/>
		</g>
		<g opacity="0.200000">
			<path id="Vector" d="M498.84 343.81C498.84 347.56 495.88 350.59 492.23 350.59C488.58 350.59 485.63 347.56 485.63 343.81C485.63 340.06 488.58 337.02 492.23 337.02C495.88 337.02 498.84 340.06 498.84 343.81Z" fill="#666666" fill-opacity="1.000000" fill-rule="nonzero"/>
		</g>
		<path id="Vector" d="M498.35 343.39C498.35 347.14 495.31 350.17 491.57 350.17C487.82 350.17 484.79 347.14 484.79 343.39C484.79 339.63 487.82 336.6 491.57 336.6C495.31 336.6 498.35 339.63 498.35 343.39Z" fill="#949494" fill-opacity="1.000000" fill-rule="nonzero"/>
		<path id="Vector" d="M497.93 343.39C497.93 347.14 494.89 350.17 491.15 350.17C487.4 350.17 484.37 347.14 484.37 343.39C484.37 339.63 487.4 336.6 491.15 336.6C494.89 336.6 497.93 339.63 497.93 343.39Z" fill="#CCCCCC" fill-opacity="1.000000" fill-rule="nonzero"/>
		<path id="Vector" d="M347.12 372.92C347.12 372.92 347.08 372.92 347.07 372.92C347.05 372.92 347.03 372.95 347.01 372.96C346.97 372.97 346.93 373 346.91 373.01C346.89 373.03 346.86 373.05 346.82 373.07C346.8 373.1 346.76 373.12 346.74 373.16C346.71 373.18 346.69 373.22 346.66 373.24C346.66 373.26 346.64 373.27 346.63 373.28C346.63 373.29 346.63 373.32 346.6 373.34C346.59 373.38 346.58 373.41 346.56 373.44C346.55 373.48 346.54 373.52 346.53 373.57C346.53 373.6 346.51 373.64 346.51 373.68C346.51 373.71 346.51 373.74 346.51 373.78C346.51 373.8 346.51 373.83 346.51 373.85C346.51 373.86 346.53 373.88 346.53 373.9C346.53 373.94 346.54 373.97 346.55 374C346.55 374.01 346.55 374.04 346.55 374.05L350.19 383.47C350.36 383.92 350.87 384.15 351.31 383.96C351.74 383.8 351.96 383.36 351.85 382.94C351.85 382.9 351.82 382.86 351.81 382.83L349.09 375.79L371.13 389.1C371.54 389.35 372.09 389.21 372.33 388.81C372.46 388.59 372.48 388.36 372.43 388.15C372.38 387.93 372.25 387.74 372.04 387.6L349.94 374.27L356.14 373.47C356.62 373.41 356.96 372.97 356.89 372.49C356.89 372.45 356.89 372.43 356.87 372.39C356.76 371.97 356.35 371.67 355.9 371.73L347.22 372.86C347.22 372.86 347.19 372.87 347.17 372.87C347.13 372.87 347.11 372.89 347.07 372.9L347.12 372.92Z" fill="#666666" fill-opacity="1.000000" fill-rule="nonzero"/>
		<path id="Vector" d="M184.76 194.08C184.76 194.08 184.8 194.08 184.81 194.08C184.83 194.08 184.85 194.05 184.87 194.04C184.91 194.03 184.94 194.02 184.97 193.99C184.99 193.97 185.03 193.95 185.06 193.93C185.09 193.9 185.12 193.88 185.14 193.86C185.17 193.83 185.19 193.79 185.22 193.77C185.22 193.76 185.24 193.74 185.25 193.73C185.25 193.72 185.25 193.69 185.28 193.67C185.29 193.64 185.3 193.61 185.33 193.57C185.34 193.53 185.35 193.5 185.37 193.45C185.37 193.41 185.38 193.37 185.39 193.34C185.39 193.3 185.39 193.26 185.39 193.24C185.39 193.21 185.39 193.19 185.39 193.16C185.39 193.15 185.39 193.14 185.38 193.11C185.38 193.08 185.37 193.04 185.35 193.01C185.35 193 185.35 192.98 185.35 192.96L181.99 183.44C181.83 182.99 181.33 182.75 180.87 182.91C180.45 183.06 180.22 183.49 180.31 183.93C180.31 183.96 180.32 184 180.33 184.04L182.84 191.14L161.19 177.2C160.78 176.94 160.24 177.06 159.98 177.46C159.84 177.66 159.82 177.91 159.85 178.12C159.9 178.34 160.03 178.54 160.24 178.67L181.94 192.64L175.72 193.26C175.23 193.31 174.89 193.74 174.94 194.21C174.94 194.25 174.94 194.28 174.95 194.31C175.05 194.75 175.44 195.04 175.89 194.99L184.61 194.13C184.61 194.13 184.64 194.13 184.66 194.12C184.7 194.12 184.73 194.1 184.76 194.09L184.76 194.08Z" fill="#666666" fill-opacity="1.000000" fill-rule="nonzero"/>
		<g opacity="0.700000">
			<path id="Vector" d="M332.67 332.88C332.67 334.6 331.28 335.98 329.56 335.98L285.98 335.98C284.26 335.98 282.87 334.6 282.87 332.88C282.87 331.15 284.26 329.77 285.98 329.77L329.56 329.77C331.28 329.77 332.67 331.15 332.67 332.88Z" fill="#CCCCCC" fill-opacity="1.000000" fill-rule="nonzero"/>
			<path id="Vector" d="M332.67 345.25C332.67 346.98 331.28 348.36 329.56 348.36L285.98 348.36C284.26 348.36 282.87 346.98 282.87 345.25C282.87 343.53 284.26 342.15 285.98 342.15L329.56 342.15C331.28 342.15 332.67 343.53 332.67 345.25Z" fill="#CCCCCC" fill-opacity="1.000000" fill-rule="nonzero"/>
			<path id="Vector" d="M189.21 213.19C189.21 214.63 188.05 215.78 186.63 215.78L150.25 215.78C148.82 215.78 147.67 214.62 147.67 213.19C147.67 211.76 148.83 210.6 150.25 210.6L186.63 210.6C188.06 210.6 189.21 211.77 189.21 213.19Z" fill="#CCCCCC" fill-opacity="1.000000" fill-rule="nonzero"/>
			<path id="Vector" d="M189.21 223.52C189.21 224.95 188.05 226.1 186.63 226.1L150.25 226.1C148.82 226.1 147.67 224.94 147.67 223.52C147.67 222.08 148.83 220.93 150.25 220.93L186.63 220.93C188.06 220.93 189.21 222.09 189.21 223.52Z" fill="#CCCCCC" fill-opacity="1.000000" fill-rule="nonzero"/>
			<path id="Vector" d="M405.6 235.24C405.6 236.96 404.22 238.35 402.5 238.35L358.91 238.35C357.19 238.35 355.81 236.96 355.81 235.24C355.81 233.52 357.19 232.13 358.91 232.13L402.5 232.13C404.22 232.13 405.6 233.52 405.6 235.24Z" fill="#CCCCCC" fill-opacity="1.000000" fill-rule="nonzero"/>
			<path id="Vector" d="M405.6 247.62C405.6 249.34 404.22 250.73 402.5 250.73L358.91 250.73C357.19 250.73 355.81 249.34 355.81 247.62C355.81 245.9 357.19 244.51 358.91 244.51L402.5 244.51C404.22 244.51 405.6 245.9 405.6 247.62Z" fill="#CCCCCC" fill-opacity="1.000000" fill-rule="nonzero"/>
			<path id="Vector" d="M255.74 324.83C255.74 326.26 254.58 327.42 253.15 327.42L216.78 327.42C215.34 327.42 214.19 326.25 214.19 324.83C214.19 323.39 215.36 322.24 216.78 322.24L253.15 322.24C254.59 322.24 255.74 323.41 255.74 324.83Z" fill="#CCCCCC" fill-opacity="1.000000" fill-rule="nonzero"/>
			<path id="Vector" d="M255.74 335.15C255.74 336.59 254.58 337.74 253.15 337.74L216.78 337.74C215.34 337.74 214.19 336.58 214.19 335.15C214.19 333.72 215.36 332.57 216.78 332.57L253.15 332.57C254.59 332.57 255.74 333.73 255.74 335.15Z" fill="#CCCCCC" fill-opacity="1.000000" fill-rule="nonzero"/>
			<path id="Vector" d="M255.74 240.14C255.74 241.58 254.58 242.73 253.15 242.73L216.78 242.73C215.34 242.73 214.19 241.57 214.19 240.14C214.19 238.71 215.36 237.55 216.78 237.55L253.15 237.55C254.59 237.55 255.74 238.72 255.74 240.14Z" fill="#CCCCCC" fill-opacity="1.000000" fill-rule="nonzero"/>
			<path id="Vector" d="M255.74 250.47C255.74 251.9 254.58 253.05 253.15 253.05L216.78 253.05C215.34 253.05 214.19 251.89 214.19 250.47C214.19 249.03 215.36 247.88 216.78 247.88L253.15 247.88C254.59 247.88 255.74 249.04 255.74 250.47Z" fill="#CCCCCC" fill-opacity="1.000000" fill-rule="nonzero"/>
			<path id="Vector" d="M189.21 346.28C189.21 347.72 188.05 348.87 186.63 348.87L150.25 348.87C148.82 348.87 147.67 347.71 147.67 346.28C147.67 344.85 148.83 343.69 150.25 343.69L186.63 343.69C188.06 343.69 189.21 344.86 189.21 346.28Z" fill="#CCCCCC" fill-opacity="1.000000" fill-rule="nonzero"/>
			<path id="Vector" d="M189.21 356.61C189.21 358.04 188.05 359.19 186.63 359.19L150.25 359.19C148.82 359.19 147.67 358.03 147.67 356.61C147.67 355.17 148.83 354.02 150.25 354.02L186.63 354.02C188.06 354.02 189.21 355.18 189.21 356.61Z" fill="#CCCCCC" fill-opacity="1.000000" fill-rule="nonzero"/>
			<g opacity="0.600000">
				<path id="Vector" d="M123.53 177.13C123.53 178.06 122.79 178.8 121.86 178.8L98.4 178.8C97.47 178.8 96.73 178.06 96.73 177.13C96.73 176.2 97.47 175.46 98.4 175.46L121.87 175.46C122.8 175.46 123.54 176.2 123.54 177.13L123.53 177.13Z" fill="#CCCCCC" fill-opacity="1.000000" fill-rule="nonzero"/>
				<path id="Vector" d="M123.53 183.79C123.53 184.72 122.79 185.46 121.86 185.46L98.4 185.46C97.47 185.46 96.73 184.72 96.73 183.79C96.73 182.86 97.47 182.12 98.4 182.12L121.87 182.12C122.8 182.12 123.54 182.86 123.54 183.79L123.53 183.79Z" fill="#CCCCCC" fill-opacity="1.000000" fill-rule="nonzero"/>
			</g>
		</g>
		<g opacity="0.700000">
			<path id="Vector" d="M88.6 204.84L86.44 208.75L86.31 227.81L86.33 230.16L101.32 236.98L111.07 211.63L88.6 204.84Z" fill="#CCCCCC" fill-opacity="1.000000" fill-rule="nonzero"/>
		</g>
		<path id="Vector" d="M80.07 225.4L89.98 199.65L114.24 208.99L104.33 234.74L80.07 225.4Z" fill="#45C678" fill-opacity="1.000000" fill-rule="evenodd"/>
		<path id="Vector" d="M499.52 433.73L442.15 433.73C437.66 433.73 434.02 437.37 434.02 441.86L507.64 441.86C507.64 437.37 504 433.73 499.51 433.73L499.52 433.73Z" fill="#323232" fill-opacity="1.000000" fill-rule="nonzero"/>
		<path id="Vector" d="M184.05 438.57C184.05 441.38 181.78 443.65 178.98 443.65L153.02 443.65C150.22 443.65 147.95 441.37 147.95 438.57C147.95 435.76 150.23 433.49 153.02 433.49L178.98 433.49C181.79 433.49 184.05 435.77 184.05 438.57Z" fill="#010202" fill-opacity="1.000000" fill-rule="nonzero"/>
		<path id="Vector" d="M226.63 445.4L229.36 445.4L229.36 446.37L226.63 446.37L226.63 445.4Z" fill="#323232" fill-opacity="1.000000" fill-rule="evenodd"/>
		<path id="Vector" d="M203.87 436.32L146.17 436.32C140.63 436.32 136.14 440.81 136.14 446.36L227.07 446.36C227.07 440.81 209.42 436.32 203.87 436.32Z" fill="#E470AA" fill-opacity="1.000000" fill-rule="nonzero"/>
		<mask id="mask126_357" mask-type="alpha" maskUnits="userSpaceOnUse" x="136.141083" y="436.321655" width="90.935852" height="10.039673">
			<path id="Vector" d="M203.87 436.32L146.17 436.32C140.63 436.32 136.14 440.81 136.14 446.36L227.07 446.36C227.07 440.81 209.42 436.32 203.87 436.32Z" fill="#000000" fill-opacity="1.000000" fill-rule="nonzero"/>
		</mask>
		<g mask="url(#mask126_357)">
			<path id="Vector" d="M121.18 431.34L146.95 431.34L146.95 454.24L121.18 454.24L121.18 431.34Z" fill="#323232" fill-opacity="1.000000" fill-rule="evenodd"/>
			<path id="Vector" d="M174.38 430.3L175.62 430.3L175.62 450.52L174.38 450.52L174.38 430.3Z" fill="#E994BD" fill-opacity="1.000000" fill-rule="evenodd"/>
			<path id="Vector" d="M176.85 430.3L178.09 430.3L178.09 450.52L176.85 450.52L176.85 430.3Z" fill="#E994BD" fill-opacity="1.000000" fill-rule="evenodd"/>
			<g opacity="0.200000">
				<path id="Vector" d="M209.85 434.01L228.41 434.01L228.41 450.32L209.85 450.32L209.85 434.01Z" fill="#FFFFFF" fill-opacity="1.000000" fill-rule="evenodd"/>
			</g>
		</g>
		<path id="Vector" d="M506.26 436.49L435.4 436.49C429.85 436.49 425.36 440.98 425.36 446.53L516.3 446.53C516.3 440.98 511.81 436.49 506.26 436.49Z" fill="#FFC856" fill-opacity="1.000000" fill-rule="nonzero"/>
		<path id="Vector" d="M403.51 142.81C403.51 145.01 401.73 146.79 399.54 146.79L287 146.79C284.81 146.79 283.03 145.01 283.03 142.81C283.03 140.62 284.81 138.84 287 138.84L399.54 138.84C401.73 138.84 403.51 140.62 403.51 142.81Z" fill="#C2DBF6" fill-opacity="1.000000" fill-rule="nonzero"/>
		<g opacity="0.700000">
			<path id="Vector" d="M150.64 379.64L158.91 410.83L187.11 402.29L176.78 374.22L150.64 379.64Z" fill="#CCCCCC" fill-opacity="1.000000" fill-rule="nonzero"/>
		</g>
		<path id="Vector" d="M150.66 379.64L177.52 369.74L188.02 398.24L161.15 408.15L150.66 379.64Z" fill="#DE4E96" fill-opacity="1.000000" fill-rule="evenodd"/>
		<path id="Vector" d="M167.95 370.69C169.97 372.76 169.94 376.09 167.87 378.12C165.81 380.15 162.48 380.11 160.45 378.05C158.42 375.98 158.46 372.65 160.52 370.62C162.59 368.59 165.92 368.63 167.95 370.69Z" fill="#BF8C23" fill-opacity="1.000000" fill-rule="nonzero"/>
		<path id="Vector" d="M167.71 370.92C169.74 372.98 169.7 376.31 167.64 378.34C165.57 380.37 162.24 380.34 160.21 378.27C158.18 376.2 158.22 372.87 160.29 370.84C162.35 368.81 165.68 368.85 167.71 370.92Z" fill="#FFBB2E" fill-opacity="1.000000" fill-rule="nonzero"/>
		<path id="Vector" d="M212.85 352.88L237.66 345.11L245.9 371.44L221.1 379.21L212.85 352.88Z" fill="#66C2F0" fill-opacity="1.000000" fill-rule="evenodd"/>
		<path id="Vector" d="M233.57 386.13L237.6 358.83L263.32 362.63L259.29 389.92L233.57 386.13Z" fill="#FFBB2E" fill-opacity="1.000000" fill-rule="evenodd"/>
		<path id="Vector" d="M216.53 408.17L220.56 380.87L246.28 384.67L242.25 411.96L216.53 408.17Z" fill="#45C678" fill-opacity="1.000000" fill-rule="evenodd"/>
		<path id="Vector" d="M316.41 296.07L334.18 256.51L371.45 273.26L353.69 312.83L316.41 296.07Z" fill="#E16070" fill-opacity="1.000000" fill-rule="evenodd"/>
		<path id="Vector" d="M360.75 264.64C360.75 268.78 357.4 272.13 353.27 272.13C349.14 272.13 345.78 268.78 345.78 264.64C345.78 260.5 349.14 257.15 353.27 257.15C357.4 257.15 360.75 260.5 360.75 264.64Z" fill="#949494" fill-opacity="1.000000" fill-rule="evenodd"/>
		<path id="Vector" d="M360.3 264.64C360.3 268.78 356.94 272.13 352.81 272.13C348.68 272.13 345.33 268.78 345.33 264.64C345.33 260.51 348.68 257.15 352.81 257.15C356.94 257.15 360.3 260.51 360.3 264.64Z" fill="#CCCCCC" fill-opacity="1.000000" fill-rule="nonzero"/>
		<g opacity="0.700000">
			<path id="Vector" d="M157.23 244.08L192.97 244.08L192.97 287.75L157.23 287.75L157.23 244.08Z" fill="#CCCCCC" fill-opacity="1.000000" fill-rule="evenodd"/>
		</g>
		<g opacity="0.200000">
			<path id="Vector" d="M406.83 351.98L401.58 345.04L397.39 329.51C397.39 329.51 392.71 313.87 390.46 308.93C390.11 308.18 389.74 307.47 389.35 306.79C390.2 307.01 391.03 307.19 391.83 307.3C394.33 307.67 396.66 311.36 400.82 312.99C405.68 314.91 408.68 314.13 411.02 315.22C413.24 316.26 413.92 318.56 416.38 322.67C419.52 327.92 422.83 329.03 424.5 331.53C425.15 332.52 425.61 336.16 425.61 336.16C425.54 337.39 425.77 338.93 425.92 339.78C426.22 341.4 427.23 346.27 427.23 346.27L411.65 355.11L406.83 351.96L406.83 351.98ZM538.05 604L492.8 477.95L484.74 479.24L484.81 477.95L481.41 478.31C476.41 463.45 472.4 451.93 470.61 447.48C468.21 441.59 468.24 428.41 468.92 422.08C470.19 410.47 474.37 387.42 477.31 376.12C478.98 369.72 483.24 357.18 485.28 350.89C487.59 343.79 486.3 341.22 484.65 338.54C481.62 333.63 469.95 329.41 464.93 326.57C462.85 325.4 457.27 322.01 453.95 319.98C453.95 319.98 435.35 301.48 429.62 296.26C428.28 295.03 425.34 292.75 423.61 292.22C420.95 291.4 415.22 292.16 412.48 291.63C410.9 291.32 407.79 290.03 406.26 289.84C403.98 289.57 398.72 290.9 396.44 290.98C390.14 291.23 371.99 289.84 371.99 289.84C371.99 289.84 366.64 290.57 368.44 296.26C368.54 296.58 369.03 297.06 369.49 297.45C369.38 297.56 369.27 297.67 369.18 297.77C367.66 299.53 366.4 304.07 366.12 306.53C365.74 309.96 367.35 316.83 367.18 320.27C367.06 322.5 365.95 327.09 366.66 329.2C369.7 338.33 375.08 352.03 377.57 359.74C379.16 364.71 380.65 373.47 383.12 379.89C383.41 380.62 385.65 380.99 385.63 381.79C385.56 394.38 389.88 406.98 393.6 414.53C396.19 419.79 404.11 427.81 406.19 433C408.77 439.42 413.93 460.05 419.68 484.76L417.16 485.02L419.24 489.64L409.28 491.22L431.83 603.98L538.02 603.98L538.05 604Z" fill="#92A4B9" fill-opacity="1.000000" fill-rule="nonzero"/>
		</g>
		<g opacity="0.300000">
			<path id="Vector" d="M338.24 281.91C338.34 278.65 338.58 282.66 339.28 283.49C339.97 284.31 342.31 283.72 343.1 283.43C345.13 282.69 345.99 281.5 348.2 281.26C351.26 280.94 354.17 280.11 357.17 279.4C359.28 278.89 358.96 277.75 356.86 278.26C353.16 279.15 349.37 279.19 345.72 280.11C344.92 280.32 344 280.71 343.37 281.26C341.85 282.58 342.31 280.88 341.97 279.67C341.54 278.08 338.88 278.29 337.74 278.74C335.76 279.52 334.72 280.63 334.65 282.88C334.64 283.46 338.2 282.97 338.24 281.91Z" fill="#010202" fill-opacity="1.000000" fill-rule="nonzero"/>
		</g>
		<g opacity="0.200000">
			<path id="Vector" d="M470.45 172.74C470.45 176.48 467.49 179.52 463.84 179.52C460.19 179.52 457.23 176.48 457.23 172.74C457.23 168.99 460.19 165.95 463.84 165.95C467.49 165.95 470.45 168.99 470.45 172.74Z" fill="#666666" fill-opacity="1.000000" fill-rule="evenodd"/>
		</g>
		<path id="Vector" d="M429.47 200.25L445.55 164.44L479.29 179.6L463.22 215.41L429.47 200.25Z" fill="#66C2F0" fill-opacity="1.000000" fill-rule="evenodd"/>
		<path id="Vector" d="M469.8 172.74C469.8 176.87 466.45 180.23 462.32 180.23C458.18 180.23 454.83 176.87 454.83 172.74C454.83 168.6 458.18 165.25 462.32 165.25C466.45 165.25 469.8 168.6 469.8 172.74Z" fill="#949494" fill-opacity="1.000000" fill-rule="evenodd"/>
		<path id="Vector" d="M469.33 172.74C469.33 176.87 465.98 180.23 461.85 180.23C457.72 180.23 454.36 176.87 454.36 172.74C454.36 168.6 457.72 165.25 461.85 165.25C465.98 165.25 469.33 168.6 469.33 172.74Z" fill="#CCCCCC" fill-opacity="1.000000" fill-rule="nonzero"/>
		<path id="Vector" d="M154.68 241.43L190.56 241.43L190.56 285.78L154.68 285.78L154.68 241.43Z" fill="#FFBB2E" fill-opacity="1.000000" fill-rule="evenodd"/>
		<path id="Vector" d="M149.82 248.1L163.19 237.41L166.53 241.6L153.17 252.28L149.82 248.1Z" fill="#949494" fill-opacity="1.000000" fill-rule="evenodd"/>
		<path id="Vector" d="M178.69 286.57L192.06 275.88L195.41 280.07L182.04 290.76L178.69 286.57Z" fill="#949494" fill-opacity="1.000000" fill-rule="evenodd"/>
		<path id="Vector" d="M441.92 289.04L469.02 236.98L511.13 258.92L484.02 310.98L441.92 289.04Z" fill="#B1C909" fill-opacity="1.000000" fill-rule="evenodd"/>
		<path id="Vector" d="M459.29 241.82L481.51 237.46L482.88 244.42L460.65 248.78L459.29 241.82Z" fill="#DE4E96" fill-opacity="1.000000" fill-rule="evenodd"/>
		<path id="Vector" d="M469.65 304.63L491.88 300.26L493.25 307.22L471.02 311.59L469.65 304.63Z" fill="#DE4E96" fill-opacity="1.000000" fill-rule="evenodd"/>
		<path id="Vector" d="M502.47 243.15C494.41 243.15 487.67 248.88 486.11 256.49L483.68 253.1C483.29 252.55 482.51 252.42 481.95 252.82C481.4 253.21 481.27 253.99 481.67 254.55L486 260.59C486 260.59 486.01 260.59 486.02 260.6C486.02 260.6 486.02 260.63 486.04 260.63C486.05 260.64 486.07 260.65 486.08 260.67C486.16 260.75 486.26 260.83 486.37 260.89C486.41 260.91 486.43 260.95 486.47 260.96C486.47 260.96 486.49 260.96 486.51 260.98C486.67 261.05 486.83 261.09 487.01 261.09C487.14 261.09 487.27 261.06 487.4 261.03C487.42 261.03 487.43 261.01 487.46 261C487.51 260.99 487.54 260.96 487.58 260.94C487.63 260.91 487.69 260.9 487.73 260.86C487.73 260.86 487.73 260.85 487.74 260.84C487.74 260.84 487.77 260.84 487.77 260.83L493.68 256.14C494.21 255.71 494.31 254.93 493.88 254.4C493.46 253.87 492.68 253.77 492.15 254.2L488.51 257.09C489.81 250.56 495.56 245.63 502.47 245.63C510.31 245.63 516.69 252.01 516.69 259.86C516.69 267.71 510.31 274.1 502.47 274.1C501.79 274.1 501.23 274.66 501.23 275.34C501.23 276.02 501.79 276.57 502.47 276.57C511.67 276.57 519.17 269.07 519.17 259.86C519.17 250.65 511.67 243.15 502.47 243.15Z" fill="#666666" fill-opacity="1.000000" fill-rule="nonzero"/>
		<path id="Vector" d="M283.04 185.36L334.9 185.36L334.9 248.71L283.04 248.71L283.04 185.36Z" fill="#FFBB2E" fill-opacity="1.000000" fill-rule="evenodd"/>
		<path id="Vector" d="M317.19 183.88C317.19 188.01 313.84 191.37 309.71 191.37C305.57 191.37 302.22 188.01 302.22 183.88C302.22 179.74 305.57 176.39 309.71 176.39C313.84 176.39 317.19 179.74 317.19 183.88Z" fill="#949494" fill-opacity="1.000000" fill-rule="nonzero"/>
		<path id="Vector" d="M316.72 183.88C316.72 188.01 313.37 191.37 309.24 191.37C305.1 191.37 301.75 188.01 301.75 183.88C301.75 179.74 305.1 176.39 309.24 176.39C313.37 176.39 316.72 179.74 316.72 183.88Z" fill="#CCCCCC" fill-opacity="1.000000" fill-rule="nonzero"/>
		<path id="Vector" d="M362.92 317.72L352.85 325.27C352.85 325.27 351.87 335.49 363.82 337.03C375.71 338.57 398.35 322.98 410.18 324.87C413.35 325.37 416.87 333.51 420.04 333.05C423.14 332.6 425.29 321.71 425.29 321.71L389.05 298.6L362.91 317.71L362.92 317.72Z" fill="#F7B081" fill-opacity="1.000000" fill-rule="nonzero"/>
		<path id="Vector" d="M362.36 338.3L356.35 343.89C356.35 343.89 357.29 354.81 368.8 352.84C379.58 351.01 408.09 333.53 408.09 333.53L414.66 333.53L423.61 338.57L418.71 323.45L394.65 317.86L362.35 338.28L362.36 338.3Z" fill="#FFCAA2" fill-opacity="1.000000" fill-rule="nonzero"/>
		<path id="Vector" d="M365.58 351.73C365.58 351.73 363.93 354.02 364.06 355.26C364.31 357.72 366.98 361.81 371.17 363.49C379.51 366.83 406.98 360.27 406.98 360.27L427.81 345.44L419.42 334.25L407.26 331.17L365.58 351.74L365.58 351.73Z" fill="#F7B081" fill-opacity="1.000000" fill-rule="nonzero"/>
		<path id="Vector" d="M351.15 298.61L475.87 406.33L482.56 398.04L357.61 291.8L351.15 298.61Z" fill="#5273BF" fill-opacity="1.000000" fill-rule="nonzero"/>
		<path id="Vector" d="M351.15 298.61L342.41 284.47L357.61 291.8L351.15 298.61Z" fill="#DFA58A" fill-opacity="1.000000" fill-rule="nonzero"/>
		<mask id="mask126_404" mask-type="alpha" maskUnits="userSpaceOnUse" x="342.410797" y="284.476440" width="15.205475" height="14.137207">
			<path id="Vector" d="M351.15 298.61L342.41 284.47L357.61 291.8L351.15 298.61Z" fill="#000000" fill-opacity="1.000000" fill-rule="nonzero"/>
		</mask>
		<g mask="url(#mask126_404)">
			<path id="Vector" d="M340.56 283.56L343.54 287.58L346.29 285.02L340.53 283.41L340.56 283.56Z" fill="#010202" fill-opacity="1.000000" fill-rule="nonzero"/>
		</g>
		<path id="Vector" d="M481.83 404.08C480.11 406.47 477.52 407.56 476.06 406.51C474.6 405.46 474.83 402.67 476.55 400.27C478.27 397.88 480.85 396.79 482.31 397.84C483.77 398.89 483.55 401.68 481.83 404.08Z" fill="#5C85B5" fill-opacity="1.000000" fill-rule="nonzero"/>
		<path id="Vector" d="M480.47 403.1C479.64 404.25 478.39 404.79 477.68 404.28C476.98 403.77 477.09 402.42 477.92 401.27C478.75 400.12 480 399.59 480.7 400.1C481.41 400.6 481.3 401.95 480.47 403.1Z" fill="#010202" fill-opacity="1.000000" fill-rule="nonzero"/>
		<path id="Vector" d="M362.68 296.37C362.68 296.37 361 295.16 360.8 294.52C359.01 288.84 364.35 288.11 364.35 288.11C364.35 288.11 382.5 289.5 388.8 289.25C391.09 289.16 396.35 287.84 398.63 288.11C400.17 288.3 403.27 289.58 404.85 289.89C407.58 290.43 413.31 289.67 415.97 290.49C417.7 291.02 420.65 293.3 421.98 294.52C427.71 299.75 446.32 318.24 446.32 318.24L417.96 334.43C417.96 334.43 417.52 330.8 416.85 329.81C415.18 327.3 411.88 326.2 408.73 320.95C406.27 316.84 405.59 314.54 403.38 313.5C401.04 312.41 398.03 313.19 393.17 311.27C389.01 309.63 386.69 305.94 384.19 305.58C375.59 304.32 362.67 296.37 362.67 296.37L362.68 296.37Z" fill="#FFB781" fill-opacity="1.000000" fill-rule="nonzero"/>
		<path id="Vector" d="M361.56 296.03C361.56 296.03 367.48 287.38 380.31 299.65C385.72 304.82 388.49 316.45 388.49 316.45C388.49 316.45 393.18 337.41 396.57 343.63C397.82 345.94 401.85 349.81 404.33 350.66C409.3 352.37 425.29 349.07 425.29 349.07L421.64 350.66L399.29 357.39C399.29 357.39 390.79 347.63 390.7 347.31C390.6 347 384.4 323.48 384.4 323.17C384.4 322.86 361.55 296.05 361.55 296.05L361.56 296.03Z" fill="#F6A570" fill-opacity="1.000000" fill-rule="nonzero"/>
		<path id="Vector" d="M369.75 295.01C364.81 293.36 362.54 294.9 361.55 296.03C360.02 297.79 358.76 302.34 358.49 304.8C358.11 308.23 359.72 315.1 359.54 318.54C359.43 320.77 358.32 325.36 359.02 327.47C362.07 336.6 367.45 350.29 369.93 358.01C371.53 362.98 382.26 405.23 385.98 412.8C388.57 418.06 396.49 426.08 398.56 431.27C406.37 450.64 433.52 589.45 433.52 589.45L512.15 593.6C512.15 593.6 470.31 463.8 462.96 445.75C460.56 439.86 460.6 426.67 461.28 420.35C462.54 408.74 466.72 385.69 469.67 374.38C471.34 367.98 475.59 355.44 477.63 349.15C479.95 342.06 478.65 339.49 477 336.81C473.97 331.91 462.31 327.68 457.28 324.84C454.24 323.12 443.71 316.66 443.71 316.66C443.71 316.66 422.01 326.33 418.26 333.04C417.64 334.14 418.04 336.84 418.26 338.07C418.56 339.7 419.57 344.56 419.57 344.56C419.57 344.56 408.8 353.07 404.33 352.71C399.58 352.32 395.38 345.14 394.43 343.19C392.66 339.57 390.78 331.67 389.72 327.8C388.28 322.56 385.04 312.16 382.79 307.23C379.6 300.19 373.89 296.42 369.71 295.03L369.75 295.01Z" fill="#FFB781" fill-opacity="1.000000" fill-rule="nonzero"/>
		<mask id="mask126_415" mask-type="alpha" maskUnits="userSpaceOnUse" x="358.435455" y="294.290649" width="153.722351" height="299.310669">
			<path id="Vector" d="M369.75 295.01C364.81 293.36 362.54 294.9 361.55 296.03C360.02 297.79 358.76 302.34 358.49 304.8C358.11 308.23 359.72 315.1 359.54 318.54C359.43 320.77 358.32 325.36 359.02 327.47C362.07 336.6 367.45 350.29 369.93 358.01C371.53 362.98 382.26 405.23 385.98 412.8C388.57 418.06 396.49 426.08 398.56 431.27C406.37 450.64 433.52 589.45 433.52 589.45L512.15 593.6C512.15 593.6 470.31 463.8 462.96 445.75C460.56 439.86 460.6 426.67 461.28 420.35C462.54 408.74 466.72 385.69 469.67 374.38C471.34 367.98 475.59 355.44 477.63 349.15C479.95 342.06 478.65 339.49 477 336.81C473.97 331.91 462.31 327.68 457.28 324.84C454.24 323.12 443.71 316.66 443.71 316.66C443.71 316.66 422.01 326.33 418.26 333.04C417.64 334.14 418.04 336.84 418.26 338.07C418.56 339.7 419.57 344.56 419.57 344.56C419.57 344.56 408.8 353.07 404.33 352.71C399.58 352.32 395.38 345.14 394.43 343.19C392.66 339.57 390.78 331.67 389.72 327.8C388.28 322.56 385.04 312.16 382.79 307.23C379.6 300.19 373.89 296.42 369.71 295.03L369.75 295.01Z" fill="#000000" fill-opacity="1.000000" fill-rule="nonzero"/>
		</mask>
		<g mask="url(#mask126_415)">
			<path id="Vector" d="M409.54 483.3L477.18 476.22L476.82 482.99L414.65 494.59L409.54 483.3Z" fill="#F6A570" fill-opacity="1.000000" fill-rule="nonzero"/>
		</g>
		<path id="Vector" d="M360.11 320.42C360.11 320.42 369.75 313.27 372.16 310.83C372.81 310.17 373.49 308.33 373.47 307.41C373.37 303.75 373.49 295.37 365.72 296.07C362.64 296.36 360.85 298.11 360.05 299.57C359.01 301.47 358.44 304.4 358.44 306.09C358.44 309.7 360.12 320.43 360.12 320.43L360.11 320.42Z" fill="#FFDDC4" fill-opacity="1.000000" fill-rule="nonzero"/>
		<path id="Vector" d="M401.67 489.49L428.41 604L532.95 604L485.17 476.22L401.67 489.49Z" fill="#B1C909" fill-opacity="1.000000" fill-rule="nonzero"/>
		<path id="Vector" d="M401.67 489.49L406.67 510.7L492.18 495.03L485.17 476.22L401.67 489.49Z" fill="#FFFFFF" fill-opacity="1.000000" fill-rule="nonzero"/>
	</g>
</svg>
