<svg width="218.288559" height="50.000000" viewBox="0 0 218.289 50" fill="none" xmlns="http://www.w3.org/2000/svg" xmlns:xlink="http://www.w3.org/1999/xlink">
	<desc>
			Created with Pixso.
	</desc>
	<defs/>
	<path id="logo" d="M46.06 9.6L26.72 0L5.93 5.57C2.35 6.52 0 9.76 0 13.29C0 13.97 0.08 14.67 0.27 15.36L7.96 44.07C9.11 48.33 13.49 50.86 17.76 49.72L46.47 42.03C50.05 41.07 52.4 37.84 52.4 34.31C52.4 33.62 52.31 32.93 52.13 32.23L46.06 9.6ZM6.96 9.43L25.83 4.38L27.45 10.45C28.31 13.65 31.6 15.55 34.8 14.69L42.72 12.57L48.26 33.27C48.36 33.62 48.4 33.96 48.4 34.31C48.4 36.07 47.22 37.69 45.44 38.17L16.73 45.86C14.59 46.43 12.4 45.16 11.83 43.03L4.13 14.33C4.04 13.98 4 13.63 4 13.29C4 11.52 5.17 9.91 6.96 9.43ZM30.49 6.33L37.52 9.82L33.77 10.83C32.7 11.11 31.6 10.48 31.32 9.41L30.49 6.33ZM96.15 14.71C94.68 13.15 92.62 12.37 89.97 12.37C88.41 12.37 87.01 12.66 85.75 13.24C84.51 13.79 83.51 14.6 82.74 15.67C82.12 14.6 81.24 13.79 80.08 13.24C78.93 12.66 77.59 12.37 76.05 12.37C74.58 12.37 73.28 12.65 72.15 13.21C71.02 13.74 70.11 14.51 69.43 15.51L69.43 12.76L64.4 12.76L64.4 35.15L69.59 35.15L69.59 21.88C69.59 20.17 70.02 18.9 70.9 18.07Q71.18 17.8 71.49 17.59L71.49 17.58Q72.67 16.79 74.39 16.79Q75.9 16.79 76.92 17.49Q77.25 17.71 77.52 18C78.29 18.79 78.68 19.98 78.68 21.56L78.68 35.15L83.86 35.15L83.86 21.88Q83.86 19.38 85.11 18.13Q85.14 18.1 85.17 18.07C86.05 17.22 87.22 16.79 88.69 16.79C90.04 16.79 91.11 17.19 91.92 18Q91.99 18.07 92.05 18.13L92.05 18.13Q93.17 19.31 93.17 21.56L93.17 35.15L98.36 35.15L98.36 21.4Q98.36 17.05 96.19 14.75Q96.17 14.73 96.15 14.71ZM142.27 13.77Q140.28 12.37 137.31 12.37C135.81 12.37 134.49 12.64 133.34 13.17C132.19 13.69 131.23 14.45 130.46 15.48L130.46 12.76L125.43 12.76L125.43 35.15L130.62 35.15L130.62 22.55C130.62 20.65 131.09 19.22 132.03 18.26Q132.42 17.86 132.89 17.56Q134.12 16.79 135.83 16.79C137.33 16.79 138.49 17.25 139.32 18.16C140.18 19.06 140.6 20.4 140.6 22.2L140.6 35.15L145.79 35.15L145.79 22.04C145.79 18.94 145.04 16.57 143.55 14.9Q142.97 14.25 142.27 13.77ZM180.06 35.15C180.79 34.96 181.4 34.68 181.89 34.32L180.58 30.8C179.98 31.23 179.3 31.44 178.53 31.44C177.85 31.44 177.32 31.25 176.96 30.87L176.95 30.86Q176.42 30.25 176.42 29.17L176.42 22.16L180.67 22.16L180.67 18.32L176.42 18.32L176.42 14.13L171.42 14.13L171.42 29.23C171.42 31.26 171.98 32.8 173.09 33.84C174.2 34.89 175.79 35.41 177.86 35.41C178.62 35.41 179.36 35.32 180.06 35.15ZM153.85 34.29C155.3 35.04 156.93 35.41 158.74 35.41C160.56 35.41 162.18 35.04 163.61 34.29C165.04 33.52 166.16 32.47 166.97 31.12Q167.23 30.69 167.44 30.23Q168.18 28.55 168.18 26.55Q168.18 24.54 167.44 22.87Q167.23 22.41 166.97 21.97C166.16 20.63 165.04 19.58 163.61 18.84C162.18 18.07 160.56 17.68 158.74 17.68C156.93 17.68 155.3 18.07 153.85 18.84C152.42 19.58 151.3 20.63 150.49 21.97Q150.23 22.41 150.02 22.87Q149.27 24.54 149.27 26.55Q149.27 28.55 150.02 30.23Q150.23 30.69 150.49 31.12C151.3 32.47 152.42 33.52 153.85 34.29ZM195.22 31.03C194.53 31.28 193.74 31.41 192.85 31.41C191.72 31.41 190.76 31.2 189.97 30.77C189.2 30.34 188.64 29.7 188.27 28.85L201.01 26.39Q201.01 23.76 199.84 21.83Q199.82 21.79 199.79 21.75C199 20.43 197.94 19.42 196.59 18.74Q196.27 18.57 195.93 18.43Q194.18 17.68 192.11 17.68C190.36 17.68 188.78 18.07 187.38 18.84C185.99 19.58 184.89 20.64 184.08 22Q183.82 22.45 183.61 22.93Q182.9 24.58 182.9 26.55Q182.9 28.55 183.64 30.23Q183.85 30.69 184.11 31.12C184.92 32.47 186.08 33.52 187.57 34.29C189.06 35.04 190.78 35.41 192.72 35.41C195.84 35.41 198.2 34.48 199.82 32.63L197.17 29.75C196.57 30.32 195.92 30.75 195.22 31.03ZM205.96 34.9C207.33 35.24 208.73 35.41 210.16 35.41C211.84 35.41 213.29 35.18 214.51 34.74C215.75 34.27 216.68 33.62 217.32 32.79C217.96 31.95 218.28 31 218.28 29.94C218.28 28.68 217.95 27.7 217.29 26.99C216.63 26.29 215.85 25.81 214.96 25.55C214.06 25.28 212.91 25.02 211.5 24.79C210.24 24.6 209.32 24.39 208.75 24.18C208.17 23.97 207.88 23.59 207.88 23.06C207.88 22.59 208.15 22.21 208.68 21.91Q209.48 21.46 211.08 21.46C212.88 21.46 214.53 21.89 216.04 22.74L217.71 19.19C216.92 18.72 215.92 18.36 214.7 18.1C213.51 17.82 212.3 17.68 211.08 17.68Q208.62 17.68 206.8 18.39C205.6 18.86 204.68 19.52 204.04 20.37C203.43 21.2 203.12 22.16 203.12 23.25C203.12 24.55 203.45 25.55 204.11 26.26C204.79 26.96 205.59 27.45 206.51 27.73C207.43 28.01 208.59 28.25 210 28.47C211.19 28.62 212.08 28.8 212.65 29.01C213.23 29.22 213.52 29.58 213.52 30.07C213.52 31.11 212.46 31.63 210.35 31.63Q208.78 31.63 207.15 31.19C206.06 30.87 205.13 30.46 204.36 29.97L202.7 33.55C203.51 34.09 204.6 34.53 205.96 34.9ZM120.46 32.27L120.46 17.94L115.47 17.94L115.47 25.39C115.47 26.93 115.1 28.09 114.38 28.88C113.65 29.65 112.69 30.03 111.5 30.03C109.17 30.03 108.01 28.64 108.01 25.84L108.01 17.94L103.02 17.94L103.02 26.58C103.02 29.16 103.68 31.1 105 32.4C106.32 33.68 108.12 34.32 110.38 34.32C111.38 34.32 112.32 34.15 113.19 33.81C114.07 33.47 114.83 32.98 115.47 32.34L115.47 32.91C115.47 34.49 115.08 35.66 114.31 36.43C113.55 37.2 112.33 37.58 110.67 37.58C109.6 37.58 108.54 37.41 107.5 37.07C106.45 36.73 105.57 36.26 104.84 35.66L102.86 39.25C103.84 40.02 105.04 40.6 106.47 41.01C107.92 41.41 109.46 41.61 111.08 41.61C114.13 41.61 116.46 40.85 118.06 39.31C119.66 37.78 120.46 35.43 120.46 32.27ZM15.31 23.66C14.42 23.9 13.83 24.71 13.83 25.59C13.83 25.76 13.85 25.93 13.9 26.11C14.19 27.17 15.28 27.81 16.35 27.52L36.59 22.1C37.49 21.86 38.07 21.05 38.07 20.17C38.07 20 38.05 19.82 38.01 19.65C37.72 18.58 36.62 17.95 35.56 18.24L15.31 23.66ZM189.04 22.68C189.83 21.87 190.85 21.46 192.11 21.46C193.14 21.46 194.01 21.73 194.74 22.26C195.46 22.79 195.94 23.51 196.18 24.4L187.79 26.03Q187.85 24.09 188.83 22.91Q188.93 22.79 189.04 22.68ZM161.88 30.03C161.07 30.89 160.02 31.31 158.74 31.31C157.46 31.31 156.41 30.89 155.58 30.03C154.74 29.16 154.33 28 154.33 26.55Q154.33 24.75 155.18 23.56Q155.36 23.31 155.58 23.09Q156.08 22.56 156.7 22.24Q157.6 21.78 158.74 21.78Q159.91 21.78 160.82 22.27Q161.41 22.58 161.88 23.09Q162.1 23.31 162.28 23.56Q163.13 24.75 163.13 26.55C163.13 28 162.71 29.16 161.88 30.03ZM15.56 32.03C15.56 32.2 15.58 32.37 15.63 32.55C15.91 33.61 17.01 34.25 18.07 33.96L38.32 28.54C39.21 28.3 39.8 27.49 39.8 26.61C39.8 26.44 39.78 26.26 39.73 26.09C39.45 25.02 38.35 24.39 37.28 24.67L17.04 30.1C16.15 30.34 15.56 31.14 15.56 32.03ZM24.29 35.06C23.39 35.3 22.8 36.1 22.8 36.99C22.8 37.16 22.83 37.33 22.87 37.51C23.16 38.57 24.25 39.21 25.32 38.92L34.52 36.46C35.42 36.22 36.01 35.41 36.01 34.53C36.01 34.35 35.98 34.18 35.94 34.01C35.65 32.94 34.55 32.31 33.49 32.59L24.29 35.06Z" fill="#B1C909" fill-opacity="1.000000" fill-rule="evenodd"/>
</svg>
